<?xml version="1.0" standalone="no"?>
<!DOCTYPE svg PUBLIC "-//W3C//DTD SVG 20010904//EN"
 "http://www.w3.org/TR/2001/REC-SVG-20010904/DTD/svg10.dtd">
<svg version="1.0" xmlns="http://www.w3.org/2000/svg"
 width="500.000000pt" height="500.000000pt" viewBox="0 0 500.000000 500.000000"
 preserveAspectRatio="xMidYMid meet">

<g transform="translate(0.000000,500.000000) scale(0.100000,-0.100000)"
fill="#000000" stroke="none">
<path d="M2423 4825 c-94 -41 -110 -179 -28 -243 l26 -21 -1 -337 c0 -308 -2
-339 -18 -351 -90 -67 -111 -81 -116 -75 -4 3 -6 121 -6 261 0 141 0 275 0
298 0 45 -19 73 -50 73 -10 0 -26 -7 -34 -16 -14 -13 -16 -62 -16 -378 l0
-363 -39 -31 -39 -31 -46 37 -46 37 0 339 0 338 25 29 c85 102 18 241 -114
238 -95 -2 -145 -54 -144 -149 1 -77 35 -120 116 -144 16 -5 17 -26 17 -266 0
-143 -3 -260 -6 -260 -11 0 -104 71 -104 79 0 5 -27 35 -60 67 -58 57 -60 60
-50 93 19 66 -39 141 -109 141 -83 0 -130 -66 -109 -150 10 -40 45 -70 80 -70
7 0 42 -29 78 -64 36 -35 136 -134 223 -220 l158 -156 -33 -45 c-49 -67 -58
-66 -140 9 -40 36 -78 66 -86 66 -7 0 -24 -11 -38 -25 -34 -34 -26 -54 47
-126 33 -32 59 -61 59 -65 0 -13 -62 -84 -74 -84 -6 0 -38 27 -71 60 -47 47
-66 60 -90 60 -25 0 -53 22 -170 136 -77 75 -155 148 -173 162 -32 24 -33 27
-27 77 8 60 -5 93 -54 140 -27 25 -39 29 -85 29 -43 0 -61 -5 -90 -28 -42 -32
-56 -60 -56 -115 0 -91 54 -141 152 -141 45 0 47 -2 184 -136 76 -74 164 -160
195 -190 35 -34 64 -54 79 -54 25 0 110 -64 110 -84 0 -7 -15 -26 -33 -44
l-32 -31 -59 59 c-64 65 -92 74 -126 40 -34 -34 -22 -63 51 -130 l50 -45 -26
-32 c-15 -18 -32 -33 -39 -33 -6 0 -43 31 -81 68 -63 61 -283 266 -360 335
-16 15 -33 27 -36 27 -4 0 -10 15 -13 34 -14 75 -81 115 -170 102 -40 -6 -51
-14 -76 -48 -92 -127 38 -290 174 -218 l43 23 34 -31 c198 -183 369 -347 369
-354 0 -4 -88 -8 -196 -8 l-195 0 -55 52 c-30 28 -65 72 -78 97 -14 30 -35 53
-58 65 -32 18 -40 18 -77 7 -70 -21 -100 -95 -66 -161 20 -39 47 -52 106 -52
45 1 54 -3 111 -54 l63 -54 194 0 195 0 -58 -55 -57 -55 -338 0 -337 0 -12 34
c-7 19 -29 48 -48 65 -29 26 -43 31 -87 31 -29 -1 -62 -6 -74 -13 -53 -30 -85
-109 -69 -171 10 -40 68 -94 109 -101 43 -8 72 0 114 31 l32 24 326 0 c294 0
327 -2 321 -16 -3 -9 -6 -42 -6 -75 l0 -59 -332 0 c-270 1 -338 3 -358 15 -51
29 -133 12 -179 -39 -36 -39 -41 -119 -9 -166 44 -66 119 -85 194 -49 36 18
74 74 74 110 l0 29 335 0 335 0 48 -50 c27 -27 46 -51 43 -51 -3 -1 -86 -2
-184 -3 -110 -1 -180 -5 -185 -11 -4 -6 -31 -33 -60 -60 -47 -43 -58 -49 -92
-47 -74 5 -130 -43 -130 -109 0 -70 71 -125 137 -107 37 10 83 60 83 92 0 15
21 42 62 79 l61 57 199 0 c186 0 222 -5 184 -27 -15 -9 -323 -300 -364 -344
l-24 -27 -42 24 c-48 28 -85 30 -132 8 -102 -48 -95 -243 9 -267 43 -10 115
-2 137 16 25 20 42 45 54 79 7 22 58 77 151 162 77 71 174 161 215 200 41 39
85 80 98 90 l22 19 51 -51 51 -52 -36 -41 c-19 -23 -49 -50 -66 -60 -38 -23
-42 -70 -8 -93 37 -26 55 -19 123 44 35 33 68 60 73 60 4 0 26 -18 47 -41 l40
-40 -106 -102 c-143 -138 -333 -316 -394 -371 -41 -36 -54 -42 -68 -34 -64 36
-174 -8 -197 -78 -15 -43 -7 -114 15 -148 18 -27 81 -56 121 -56 66 0 144 77
144 142 0 26 35 63 300 316 126 120 262 242 270 242 3 0 25 -18 50 -39 l44
-39 -107 -104 -107 -104 0 -110 0 -110 -42 -41 c-24 -22 -59 -46 -79 -52 -50
-16 -70 -42 -76 -95 -7 -61 11 -101 54 -121 90 -43 194 39 166 130 -10 33 -9
36 38 79 l49 45 0 113 0 113 90 88 91 89 44 -39 c24 -21 44 -43 44 -48 1 -6
-31 -42 -69 -80 l-70 -69 0 -338 0 -338 -40 -16 c-63 -26 -90 -65 -90 -132 0
-70 26 -117 75 -138 147 -61 279 97 185 222 l-29 39 -1 327 0 326 62 56 c57
51 64 54 83 42 19 -13 20 -24 23 -391 1 -259 6 -382 13 -392 14 -16 61 -17 77
-1 9 9 12 96 12 330 0 175 2 318 5 318 6 0 105 -70 123 -87 10 -10 13 -91 12
-380 l0 -368 -37 -37 c-29 -29 -37 -46 -41 -86 -13 -144 161 -221 251 -110 55
68 41 179 -28 224 l-25 16 0 362 c0 333 1 363 18 376 9 8 41 35 70 58 l52 44
0 -320 c0 -296 1 -320 18 -335 21 -19 45 -21 73 -7 18 10 19 25 19 389 0 362
1 379 20 396 18 17 21 16 80 -40 l60 -58 0 -332 c0 -290 -2 -334 -16 -346 -8
-7 -22 -25 -30 -40 -39 -77 17 -188 104 -205 114 -22 215 81 182 188 -12 41
-77 98 -112 98 -17 0 -18 16 -18 342 l0 342 -77 72 -78 73 25 26 c14 15 36 35
50 45 l26 18 97 -93 97 -93 0 -107 0 -108 38 -46 c34 -41 37 -50 34 -96 -3
-45 0 -55 25 -82 60 -64 158 -48 197 31 17 36 18 43 5 80 -15 42 -66 86 -100
86 -11 0 -37 17 -59 39 l-40 39 0 111 0 110 -109 109 -109 109 48 41 48 42 34
-33 c241 -228 330 -310 365 -340 23 -19 69 -63 103 -98 46 -49 60 -71 60 -94
0 -68 75 -144 142 -145 43 0 106 29 127 59 45 63 39 131 -18 191 -35 37 -42
40 -92 40 -30 0 -60 -5 -65 -10 -13 -13 -82 41 -193 150 -42 42 -145 140 -229
219 l-153 144 43 38 c24 21 46 38 50 39 4 0 34 -27 68 -60 67 -65 96 -74 130
-40 26 26 25 55 -2 81 -62 56 -108 105 -107 114 0 6 22 29 48 52 l49 43 43
-38 c144 -125 435 -407 441 -428 13 -50 55 -92 98 -99 53 -9 113 2 138 26 30
27 46 88 38 143 -14 94 -108 141 -196 96 l-42 -21 -61 52 c-34 28 -93 82 -132
120 -38 37 -103 98 -142 135 -40 37 -73 71 -73 76 0 4 89 8 198 8 l198 0 56
-58 c30 -31 58 -69 62 -84 23 -97 147 -121 204 -38 26 38 27 58 8 105 -18 43
-66 69 -117 62 -34 -4 -42 0 -91 45 -89 83 -75 80 -267 74 -94 -2 -173 -1
-175 2 -2 4 20 29 49 55 l54 47 325 0 326 0 5 -27 c13 -62 39 -97 86 -117 84
-34 172 3 197 84 39 127 -78 228 -205 175 -29 -12 -94 -15 -358 -15 l-323 0
-4 75 -3 75 321 0 c287 0 323 -2 335 -17 18 -21 71 -43 106 -43 27 0 82 28
109 55 37 37 43 100 14 160 -25 52 -64 75 -127 75 -69 0 -143 -56 -143 -109 0
-21 -2 -21 -336 -21 l-335 0 -55 52 c-30 29 -54 55 -54 58 0 3 85 4 188 2
l188 -4 59 53 c54 50 61 54 110 54 64 1 101 23 122 72 25 61 -8 124 -77 144
-57 17 -106 -11 -141 -81 -14 -29 -48 -73 -74 -97 l-48 -43 -194 0 c-106 0
-193 4 -193 8 0 5 33 39 73 77 39 37 110 104 157 149 47 45 103 98 125 119
l41 37 39 -20 c48 -25 89 -25 134 -2 52 26 74 62 75 124 1 101 -62 158 -159
143 -57 -9 -83 -29 -109 -85 -17 -37 -71 -94 -236 -250 -118 -111 -225 -209
-238 -218 -21 -14 -25 -13 -52 13 -17 16 -30 32 -30 37 0 4 25 32 55 61 62 60
71 95 33 121 -37 26 -57 19 -122 -44 l-62 -60 -37 44 -36 44 46 36 c26 20 58
36 72 36 27 0 64 32 318 276 105 101 105 101 163 107 92 8 140 58 140 146 0
35 -7 49 -41 86 -32 35 -50 45 -84 50 -54 9 -106 -14 -143 -63 -22 -29 -26
-45 -27 -97 l0 -62 -164 -162 c-145 -142 -168 -161 -197 -161 -27 0 -46 -12
-97 -60 -36 -33 -68 -60 -73 -59 -5 0 -24 19 -43 40 l-34 40 66 67 c42 43 67
76 67 90 0 24 -32 62 -54 62 -7 0 -46 -29 -86 -65 -40 -36 -75 -65 -79 -65 -4
0 -28 22 -54 48 l-47 48 87 87 c278 275 354 346 375 353 107 33 131 143 44
202 -43 29 -92 28 -139 -3 -41 -28 -52 -57 -44 -115 5 -36 1 -42 -67 -113 -39
-42 -88 -90 -108 -107 l-38 -32 0 270 0 270 29 5 c41 8 99 69 106 111 24 124
-96 212 -218 161 -74 -31 -103 -110 -69 -188 11 -24 25 -48 31 -51 8 -5 11
-109 11 -349 l0 -342 -40 -37 c-22 -21 -44 -38 -49 -38 -5 0 -23 16 -40 35
l-31 36 0 358 c0 334 -1 359 -18 374 -25 22 -48 21 -72 -3 -19 -19 -20 -33
-20 -315 0 -163 -4 -295 -9 -295 -5 0 -14 7 -21 14 -6 8 -34 29 -61 46 l-49
32 0 332 0 332 28 21 c66 49 80 136 32 201 -41 58 -111 76 -177 47z m180
-1150 c40 -37 558 -539 778 -755 58 -58 146 -143 195 -190 108 -102 145 -155
151 -213 9 -74 -15 -106 -246 -332 -119 -115 -256 -250 -306 -300 -172 -172
-540 -530 -572 -557 -39 -33 -102 -51 -148 -42 -64 12 -77 24 -576 514 -152
149 -258 253 -523 510 -48 47 -94 97 -102 112 -16 31 -19 115 -4 152 5 14 110
124 232 243 123 120 264 259 314 308 50 50 104 101 120 115 16 14 41 39 55 55
51 59 382 371 423 398 37 26 47 28 104 24 54 -4 67 -9 105 -42z"/>
<path d="M2436 3517 c-28 -20 -18 -87 15 -106 53 -29 121 27 100 83 -15 37
-78 50 -115 23z"/>
<path d="M2447 3242 c-13 -14 -17 -38 -17 -103 l0 -84 -43 48 c-24 26 -53 47
-64 47 -24 0 -53 -30 -53 -55 0 -10 37 -53 82 -96 45 -43 79 -81 75 -85 -4 -4
-18 5 -31 19 -30 32 -60 35 -79 6 -22 -30 -12 -50 54 -108 l59 -52 0 -60 c0
-34 -4 -59 -9 -57 -5 2 -52 43 -105 91 l-96 89 0 123 c0 117 -1 125 -22 139
-29 20 -34 20 -58 -4 -17 -17 -20 -33 -20 -106 l0 -86 -76 71 c-42 39 -82 71
-89 71 -7 0 -23 -8 -35 -18 -35 -28 -20 -60 60 -136 l70 -66 -48 0 c-60 0 -94
-22 -86 -55 3 -12 1 -26 -5 -29 -27 -17 -10 -60 42 -113 l54 -53 -117 0 c-128
0 -150 -9 -150 -61 0 -44 15 -49 154 -49 l130 0 -62 -63 c-60 -60 -74 -88 -52
-102 6 -4 8 -16 5 -27 -11 -33 21 -58 77 -58 26 0 48 -2 48 -5 0 -3 -31 -35
-70 -72 -44 -42 -70 -75 -70 -88 0 -24 29 -55 51 -55 8 1 48 33 89 71 l75 71
3 -83 c3 -91 11 -109 51 -109 46 0 51 15 51 140 l0 116 99 92 c55 51 102 92
105 92 3 0 6 -26 6 -57 0 -57 0 -57 -65 -120 -36 -35 -65 -67 -65 -73 0 -14
37 -50 52 -50 6 0 27 12 46 26 60 46 21 -7 -58 -78 -75 -67 -86 -96 -49 -121
27 -19 45 -13 94 29 l40 34 5 -102 5 -103 38 -3 c60 -5 67 7 67 114 0 53 4 94
10 94 5 0 22 -16 37 -35 19 -24 36 -35 55 -35 28 0 58 23 58 44 0 6 -36 50
-80 96 -79 82 -100 117 -40 67 26 -23 34 -25 55 -15 41 19 32 50 -35 116 -59
59 -60 61 -60 116 0 31 3 56 7 56 6 0 87 -75 170 -158 l33 -33 0 -118 c0 -117
0 -118 26 -130 22 -9 31 -9 50 4 21 13 24 24 26 99 l3 84 73 -69 c40 -38 82
-69 92 -69 25 0 54 43 46 68 -4 11 -36 47 -71 81 -36 35 -65 65 -65 67 0 2 24
4 53 4 46 0 55 3 66 24 8 13 10 29 7 35 -4 6 -2 20 4 31 14 26 0 49 -67 114
l-48 46 130 0 c141 0 155 5 155 50 0 50 -24 60 -152 60 l-116 0 55 56 c47 48
54 61 48 83 -4 14 -7 37 -7 51 0 43 -25 60 -87 60 l-56 1 30 25 c61 53 97 88
112 110 29 44 -14 97 -59 73 -13 -6 -51 -39 -85 -72 l-63 -61 0 87 c0 74 -3
90 -20 107 -24 24 -29 24 -58 4 -21 -14 -22 -22 -22 -136 l0 -121 -97 -94
c-54 -51 -101 -93 -105 -93 -5 0 -8 26 -8 58 0 57 1 59 53 108 81 78 82 80 63
109 -21 32 -43 32 -78 -2 -15 -14 -31 -24 -34 -20 -4 3 30 42 75 86 84 83 95
105 61 136 -28 25 -62 13 -94 -35 -14 -22 -31 -40 -36 -40 -6 0 -10 36 -10 84
0 76 -2 86 -22 100 -29 21 -51 20 -71 -2z m-199 -575 l87 -82 -89 -3 -90 -3
-78 78 c-43 43 -78 80 -78 83 0 3 36 6 81 7 l80 2 87 -82z m646 -7 l-81 -80
-92 0 -91 0 81 80 80 80 92 0 92 0 -81 -80z m-566 -199 c-1 -4 -40 -43 -84
-85 l-82 -76 -81 0 c-45 0 -81 3 -81 8 0 4 10 16 23 26 12 11 50 45 84 77 l61
59 82 0 c45 0 80 -4 78 -9z m559 -76 l88 -84 -87 -1 -86 0 -44 43 c-24 23 -63
57 -86 75 -23 19 -42 38 -42 43 0 5 38 9 85 9 l85 0 87 -85z"/>
<path d="M1473 2561 c-37 -59 14 -136 71 -110 36 17 54 64 35 98 -20 35 -87
42 -106 12z"/>
<path d="M3397 2562 c-37 -40 -6 -114 46 -114 55 0 85 60 57 113 -14 26 -80
26 -103 1z"/>
<path d="M2437 1602 c-20 -22 -22 -83 -5 -100 13 -13 76 -16 94 -4 23 15 34
50 24 76 -17 46 -83 62 -113 28z"/>
<path d="M1321 3821 c-27 -27 -27 -71 0 -105 26 -33 62 -34 94 -1 46 45 26
111 -38 122 -27 4 -39 1 -56 -16z"/>
<path d="M3545 3815 c-29 -28 -31 -45 -10 -84 27 -53 85 -57 116 -8 51 82 -38
161 -106 92z"/>
<path d="M1466 3658 c-22 -31 -20 -60 5 -92 39 -50 119 -17 119 50 0 58 -92
89 -124 42z"/>
<path d="M3402 3664 c-29 -20 -30 -76 -2 -104 44 -44 114 -10 114 55 0 60 -60
86 -112 49z"/>
<path d="M1316 1709 c-53 -42 -16 -139 48 -123 56 14 73 78 31 119 -29 30 -45
31 -79 4z"/>
<path d="M3600 1723 c-71 -26 -66 -115 7 -137 52 -16 96 51 68 104 -18 36 -41
45 -75 33z"/>
<path d="M1147 1572 c-35 -38 -8 -122 39 -122 20 0 56 19 71 39 46 60 -59 139
-110 83z"/>
<path d="M3721 1564 c-24 -31 -25 -38 -9 -67 27 -52 75 -61 113 -22 48 47 22
115 -45 115 -30 0 -43 -6 -59 -26z"/>
</g>
</svg>
